<svg xmlns="http://www.w3.org/2000/svg" viewBox="0 0 1200 420" width="1200" height="420" role="img" aria-label="Hero texture: faint ruled grid with a ranked queue of marks.">
<title>Hero texture: faint ruled grid with a ranked queue of marks.</title>
<rect width="1200" height="420" fill="#FBFAF7"/>
<g stroke="#E3E0D9" stroke-width="1">
<line x1="0" y1="0" x2="0" y2="420"/>
<line x1="40" y1="0" x2="40" y2="420"/>
<line x1="80" y1="0" x2="80" y2="420"/>
<line x1="120" y1="0" x2="120" y2="420"/>
<line x1="160" y1="0" x2="160" y2="420"/>
<line x1="200" y1="0" x2="200" y2="420"/>
<line x1="240" y1="0" x2="240" y2="420"/>
<line x1="280" y1="0" x2="280" y2="420"/>
<line x1="320" y1="0" x2="320" y2="420"/>
<line x1="360" y1="0" x2="360" y2="420"/>
<line x1="400" y1="0" x2="400" y2="420"/>
<line x1="440" y1="0" x2="440" y2="420"/>
<line x1="480" y1="0" x2="480" y2="420"/>
<line x1="520" y1="0" x2="520" y2="420"/>
<line x1="560" y1="0" x2="560" y2="420"/>
<line x1="600" y1="0" x2="600" y2="420"/>
<line x1="640" y1="0" x2="640" y2="420"/>
<line x1="680" y1="0" x2="680" y2="420"/>
<line x1="720" y1="0" x2="720" y2="420"/>
<line x1="760" y1="0" x2="760" y2="420"/>
<line x1="800" y1="0" x2="800" y2="420"/>
<line x1="840" y1="0" x2="840" y2="420"/>
<line x1="880" y1="0" x2="880" y2="420"/>
<line x1="920" y1="0" x2="920" y2="420"/>
<line x1="960" y1="0" x2="960" y2="420"/>
<line x1="1000" y1="0" x2="1000" y2="420"/>
<line x1="1040" y1="0" x2="1040" y2="420"/>
<line x1="1080" y1="0" x2="1080" y2="420"/>
<line x1="1120" y1="0" x2="1120" y2="420"/>
<line x1="1160" y1="0" x2="1160" y2="420"/>
<line x1="1200" y1="0" x2="1200" y2="420"/>
<line x1="0" y1="0" x2="1200" y2="0"/>
<line x1="0" y1="40" x2="1200" y2="40"/>
<line x1="0" y1="80" x2="1200" y2="80"/>
<line x1="0" y1="120" x2="1200" y2="120"/>
<line x1="0" y1="160" x2="1200" y2="160"/>
<line x1="0" y1="200" x2="1200" y2="200"/>
<line x1="0" y1="240" x2="1200" y2="240"/>
<line x1="0" y1="280" x2="1200" y2="280"/>
<line x1="0" y1="320" x2="1200" y2="320"/>
<line x1="0" y1="360" x2="1200" y2="360"/>
<line x1="0" y1="400" x2="1200" y2="400"/>
</g>
<rect x="96" y="128" width="30" height="232" rx="4" fill="#A8461F" opacity="1.00"/>
<rect x="148" y="154" width="30" height="206" rx="4" fill="#A8461F" opacity="1.00"/>
<rect x="200" y="163" width="30" height="197" rx="4" fill="#A8461F" opacity="1.00"/>
<rect x="252" y="182" width="30" height="178" rx="4" fill="#2F4858" opacity="0.54"/>
<rect x="304" y="189" width="30" height="171" rx="4" fill="#2F4858" opacity="0.51"/>
<rect x="356" y="210" width="30" height="150" rx="4" fill="#2F4858" opacity="0.48"/>
<rect x="408" y="219" width="30" height="141" rx="4" fill="#2F4858" opacity="0.45"/>
<rect x="460" y="234" width="30" height="126" rx="4" fill="#2F4858" opacity="0.42"/>
<rect x="512" y="242" width="30" height="118" rx="4" fill="#2F4858" opacity="0.40"/>
<rect x="564" y="256" width="30" height="104" rx="4" fill="#2F4858" opacity="0.37"/>
<rect x="616" y="263" width="30" height="97" rx="4" fill="#2F4858" opacity="0.34"/>
<rect x="668" y="274" width="30" height="86" rx="4" fill="#2F4858" opacity="0.31"/>
<rect x="720" y="281" width="30" height="79" rx="4" fill="#2F4858" opacity="0.28"/>
<rect x="772" y="292" width="30" height="68" rx="4" fill="#2F4858" opacity="0.26"/>
<rect x="824" y="298" width="30" height="62" rx="4" fill="#2F4858" opacity="0.23"/>
<rect x="876" y="306" width="30" height="54" rx="4" fill="#2F4858" opacity="0.20"/>
<rect x="928" y="312" width="30" height="48" rx="4" fill="#2F4858" opacity="0.17"/>
<rect x="980" y="319" width="30" height="41" rx="4" fill="#2F4858" opacity="0.16"/>
<rect x="1032" y="324" width="30" height="36" rx="4" fill="#2F4858" opacity="0.16"/>
<rect x="1084" y="330" width="30" height="30" rx="4" fill="#2F4858" opacity="0.16"/>
<line x1="64" y1="360" x2="1136" y2="360" stroke="#2F4858" stroke-width="1.5" opacity="0.35"/>
</svg>
